PathFileType	4	(X/Y/Z)	/Users/itak/Documents/Research/Walk-IL/dataset/trc/00413_00012.trc
DataRate	CameraRate	NumFrames	NumMarkers	Units	OrigDataRate	OrigDataStartFrame	OrigNumFrames
100.000000	100.000000	4	53	mm	100.000000	504	576
Frame#	Time	RPSI			LPSI			L3			STRN			T10			C7			CLAV			RBAK			LBAK			LSHO			LUPA			LAEL			LAOL			LWTS			LWPS			LFRA			LIFD			LHPS			LHTS			RSHO			RUPA			RAEL			RAOL			RWTS			RWPS			RFRA			RIFD			RHTS			RHPS			RBHD			LFHD			RFHD			LBHD			LHIP			RHIP			RASI			LASI			LKNE			LTHI			LANK			LTIP			LTOE			LMT1			LMT5			LHEE			RKNE			RTHI			RANK			RTIP			RTOE			RMT1			RMT5			RHEE			
		X1	Y1	Z1	X2	Y2	Z2	X3	Y3	Z3	X4	Y4	Z4	X5	Y5	Z5	X6	Y6	Z6	X7	Y7	Z7	X8	Y8	Z8	X9	Y9	Z9	X10	Y10	Z10	X11	Y11	Z11	X12	Y12	Z12	X13	Y13	Z13	X14	Y14	Z14	X15	Y15	Z15	X16	Y16	Z16	X17	Y17	Z17	X18	Y18	Z18	X19	Y19	Z19	X20	Y20	Z20	X21	Y21	Z21	X22	Y22	Z22	X23	Y23	Z23	X24	Y24	Z24	X25	Y25	Z25	X26	Y26	Z26	X27	Y27	Z27	X28	Y28	Z28	X29	Y29	Z29	X30	Y30	Z30	X31	Y31	Z31	X32	Y32	Z32	X33	Y33	Z33	X34	Y34	Z34	X35	Y35	Z35	X36	Y36	Z36	X37	Y37	Z37	X38	Y38	Z38	X39	Y39	Z39	X40	Y40	Z40	X41	Y41	Z41	X42	Y42	Z42	X43	Y43	Z43	X44	Y44	Z44	X45	Y45	Z45	X46	Y46	Z46	X47	Y47	Z47	X48	Y48	Z48	X49	Y49	Z49	X50	Y50	Z50	X51	Y51	Z51	X52	Y52	Z52	X53	Y53	Z53	

505	5.04	1101.363525390625	978.4775390625	-409.67529296875	969.02978515625	970.9920654296875	-408.9229736328125	1037.312866210938	1045.884033203125	-410.5419616699219	1045.721801757812	1209.335571289062	-647.8408203125	1034.24462890625	1149.698120117188	-399.9206237792969	1029.206787109375	1399.990478515625	-431.1695251464844	1043.33349609375	1327.539916992188	-591.2242431640625	1092.043701171875	1253.666625976562	-389.3752746582031	925.607177734375	1365.0986328125	-423.6657104492188	882.398193359375	1385.227783203125	-513.6393432617188	804.128173828125	1273.28759765625	-510.7407531738281	770.3566284179688	1086.609252929688	-573.2631225585938	815.482421875	1048.776000976562	-509.0003662109375	831.9266357421875	902.310546875	-706.5074462890625	754.6517944335938	882.1093139648438	-679.9325561523438	759.8883056640625	991.1129150390625	-617.9168701171875	822.6969604492188	730.7173461914062	-759.1541748046875	764.6456909179688	802.6235961914062	-716.020751953125	814.1873168945312	816.3364868164062	-755.6403198242188	1189.499389648438	1380.50634765625	-481.6810302734375	1246.323852539062	1316.24169921875	-463.5794677734375	1289.430297851562	1056.185791015625	-459.5030517578125	1197.406494140625	1036.058227539062	-451.0762329101562	1282.631591796875	837.0400390625	-580.0419921875	1339.15087890625	830.3753051757812	-532.6915283203125	1311.099609375	992.3276977539062	-480.7550659179688	1286.816772460938	660.0327758789062	-573.4937133789062	1305.2451171875	731.0584716796875	-589.62744140625	1341.217041015625	740.4799194335938	-530.604736328125	1124.854370117188	1597.301025390625	-492.3909912109375	963.390625	1588.369384765625	-610.857421875	1086.049682617188	1599.000854492188	-621.0960693359375	968.0065307617188	1582.957153320312	-461.8822631835938	856.61572265625	964.1454467773438	-500.2235717773438	1212.64453125	950.5021362304688	-495.9959106445312	1160.21484375	964.0184936523438	-627.3402709960938	898.9210205078125	966.99365234375	-616.9271240234375	865.3883056640625	469.5000915527344	-550.8471069335938	858.6796264648438	611.6798706054688	-541.3814086914062	895.57275390625	31.43554496765137	-471.4766540527344	866.3239135742188	237.7959442138672	-507.8060913085938	973.5004272460938	41.22347259521484	-674.5034790039062	996.9263305664062	35.95291137695312	-596.8800048828125	889.9495849609375	32.1424446105957	-599.0850219726562	948.5624389648438	27.83105659484863	-428.8118591308594	1179.74951171875	463.6501159667969	-537.2044067382812	1209.603393554688	725.8121337890625	-576.489990234375	1135.503173828125	45.38542175292969	-481.6633605957031	1160.181884765625	339.2787170410156	-546.3282470703125	1065.9873046875	30.38297080993652	-660.1207275390625	1037.90625	33.37611389160156	-584.650634765625	1139.35498046875	36.64243316650391	-565.6793212890625	1083.462036132812	30.73670196533203	-407.6927795410156	
506	5.05	1101.249877929688	978.5808715820312	-409.8209838867188	968.930908203125	971.1486206054688	-409.0123596191406	1037.224243164062	1045.921752929688	-410.7034606933594	1045.716918945312	1209.32666015625	-648.103759765625	1034.156616210938	1149.759521484375	-400.1398315429688	1029.2099609375	1399.99853515625	-431.4369812011719	1043.323120117188	1327.55224609375	-591.51806640625	1092.00537109375	1253.790649414062	-389.6262512207031	925.6492919921875	1365.121459960938	-423.946533203125	882.489990234375	1385.260620117188	-513.8523559570312	804.22119140625	1273.30078125	-511.0722045898438	770.7010498046875	1086.648803710938	-573.829833984375	815.7794189453125	1048.818481445312	-509.5049133300781	832.70166015625	902.3695068359375	-706.9635620117188	755.3704223632812	882.1407470703125	-680.5687866210938	760.373291015625	991.1152954101562	-618.5016479492188	823.679443359375	730.70458984375	-759.4545288085938	765.50048828125	802.6133422851562	-716.5648803710938	815.1178588867188	816.3150024414062	-756.0780029296875	1189.4716796875	1380.516357421875	-481.9375305175781	1246.29638671875	1316.33740234375	-463.7098388671875	1289.393310546875	1056.28369140625	-458.9282836914062	1197.357177734375	1036.237548828125	-450.4384765625	1282.797973632812	836.9175415039062	-579.080078125	1339.188720703125	830.2540893554688	-531.563232421875	1311.070556640625	992.3272094726562	-480.0040283203125	1287.022583007812	659.9722900390625	-572.3070678710938	1305.432373046875	730.917236328125	-588.4141235351562	1341.275756835938	740.4751586914062	-529.3185424804688	1124.902709960938	1597.328369140625	-492.7958068847656	962.9825439453125	1588.465454101562	-610.6593017578125	1085.595458984375	1599.231323242188	-621.3358154296875	968.21533203125	1582.799194335938	-461.7010803222656	856.5609741210938	964.22900390625	-500.2604370117188	1212.563354492188	950.3280639648438	-495.6909790039062	1160.073120117188	964.0263671875	-627.4539184570312	898.858154296875	967.1246337890625	-617.0502319335938	865.226806640625	469.5	-550.694091796875	858.7086181640625	611.6380615234375	-541.2506713867188	895.5440673828125	31.423583984375	-471.4962463378906	866.2291870117188	237.7513122558594	-507.716064453125	973.4926147460938	41.24832153320312	-674.4780883789062	996.8990478515625	35.96917343139648	-596.877685546875	889.9098510742188	32.12943649291992	-599.0880126953125	948.5450439453125	27.84126853942871	-428.8157348632812	1179.731201171875	463.6773071289062	-537.0909423828125	1209.438598632812	725.7045288085938	-576.4378662109375	1135.536865234375	45.3858757019043	-481.640625	1160.231689453125	339.2886047363281	-546.255126953125	1066.001953125	30.42240333557129	-660.0821533203125	1037.909545898438	33.38443756103516	-584.6303100585938	1139.352905273438	36.6121940612793	-565.6468505859375	1083.5224609375	30.70979499816895	-407.6829528808594	
507	5.06	1101.104248046875	978.65869140625	-409.9659729003906	968.8005981445312	971.2855834960938	-409.1011047363281	1037.1435546875	1045.958862304688	-410.8433227539062	1045.73779296875	1209.3173828125	-648.360595703125	1034.061157226562	1149.81640625	-400.3401184082031	1029.2314453125	1400.014038085938	-431.7070922851562	1043.338256835938	1327.55712890625	-591.8006591796875	1091.956909179688	1253.895874023438	-389.9161376953125	925.71044921875	1365.145385742188	-424.2174682617188	882.5936889648438	1385.299194335938	-514.0670166015625	804.325439453125	1273.310668945312	-511.3651733398438	771.06884765625	1086.653564453125	-574.2800903320312	816.1321411132812	1048.850219726562	-509.8981323242188	833.4708251953125	902.337646484375	-707.2411499023438	756.0889282226562	882.0928955078125	-681.0068969726562	760.8744506835938	991.073486328125	-618.9453735351562	824.6319580078125	730.5535888671875	-759.4608764648438	766.34326171875	802.506591796875	-716.8665771484375	816.0325317382812	816.1698608398438	-756.2847290039062	1189.4521484375	1380.530639648438	-482.1636047363281	1246.272094726562	1316.439453125	-463.8011169433594	1289.388671875	1056.390380859375	-458.3442993164062	1197.340087890625	1036.425659179688	-449.7914733886719	1283.002563476562	836.8909301757812	-578.2860717773438	1339.281860351562	830.2056274414062	-530.628662109375	1311.085571289062	992.3546752929688	-479.2933959960938	1287.297119140625	660.0322265625	-571.4246215820312	1305.690551757812	730.8999633789062	-587.51416015625	1341.396850585938	740.5288696289062	-528.328369140625	1124.937622070312	1597.3544921875	-493.2132568359375	962.5637817382812	1588.551635742188	-610.4676513671875	1085.122924804688	1599.457153320312	-621.5939331054688	968.447509765625	1582.638671875	-461.5126037597656	856.4747924804688	964.29296875	-500.296630859375	1212.476806640625	950.0778198242188	-495.2985534667969	1159.958740234375	964.0426635742188	-627.5394897460938	898.8013305664062	967.2340087890625	-617.1658325195312	865.0963745117188	469.49853515625	-550.593017578125	858.7765502929688	611.5962524414062	-541.1746215820312	895.5311889648438	31.4079418182373	-471.5104370117188	866.1392211914062	237.7129364013672	-507.6567077636719	973.5003051757812	41.26731872558594	-674.4676513671875	996.8797607421875	35.98438262939453	-596.8740844726562	889.8742065429688	32.11794281005859	-599.0914306640625	948.5286254882812	27.85248184204102	-428.8199462890625	1179.701782226562	463.6946411132812	-537.0518798828125	1209.27880859375	725.6018676757812	-576.38671875	1135.563720703125	45.38587951660156	-481.6224060058594	1160.255859375	339.2892761230469	-546.2086791992188	1066.0166015625	30.45332527160645	-660.0512084960938	1037.908447265625	33.3892707824707	-584.6173706054688	1139.3466796875	36.57856369018555	-565.6217651367188	1083.555908203125	30.69305992126465	-407.6762390136719	
508	5.07	1100.928100585938	978.706298828125	-410.1091003417969	968.6415405273438	971.3984985351562	-409.1884765625	1037.066772460938	1045.996704101562	-410.9626770019531	1045.78564453125	1209.30810546875	-648.610595703125	1033.958862304688	1149.870971679688	-400.5213928222656	1029.268920898438	1400.037841796875	-431.9786071777344	1043.38232421875	1327.554565429688	-592.0706787109375	1091.899291992188	1253.983520507812	-390.2405700683594	925.7857055664062	1365.170043945312	-424.4810180664062	882.7061157226562	1385.343994140625	-514.286376953125	804.438720703125	1273.318359375	-511.6217346191406	771.4552001953125	1086.625122070312	-574.61376953125	816.5264892578125	1048.87255859375	-510.1770629882812	834.2347412109375	902.2205200195312	-707.3434448242188	756.8035278320312	881.9711303710938	-681.2559814453125	761.386962890625	990.9915161132812	-619.2515258789062	825.5594482421875	730.2745361328125	-759.1857299804688	767.1734619140625	802.3111572265625	-716.9398803710938	816.9376220703125	815.910400390625	-756.2687377929688	1189.441162109375	1380.548828125	-482.3577880859375	1246.249755859375	1316.544067382812	-463.8553161621094	1289.410888671875	1056.50390625	-457.7593383789062	1197.349853515625	1036.62060546875	-449.1435241699219	1283.24267578125	836.9491577148438	-577.6548461914062	1339.430786132812	830.2320556640625	-529.885498046875	1311.143798828125	992.4107666015625	-478.6329956054688	1287.635131835938	660.1973266601562	-570.8280639648438	1306.0146484375	730.9915771484375	-586.9067993164062	1341.576293945312	740.6292114257812	-527.6181030273438	1124.962280273438	1597.383422851562	-493.6455688476562	962.136962890625	1588.629760742188	-610.2838134765625	1084.634399414062	1599.67919921875	-621.87109375	968.7000732421875	1582.476318359375	-461.3179931640625	856.3599853515625	964.3328857421875	-500.3314819335938	1212.371337890625	949.744384765625	-494.8117370605469	1159.869506835938	964.0625610351562	-627.594482421875	898.7457885742188	967.3121948242188	-617.2753295898438	864.9932861328125	469.4949035644531	-550.53271484375	858.8712768554688	611.555908203125	-541.1444702148438	895.531494140625	31.39146995544434	-471.5177307128906	866.0549926757812	237.6804504394531	-507.6223754882812	973.5236206054688	41.2796630859375	-674.471435546875	996.8693237304688	35.99811172485352	-596.8690795898438	889.8432006835938	32.1078987121582	-599.0953979492188	948.51220703125	27.86408233642578	-428.8244934082031	1179.658813476562	463.7010803222656	-537.0723876953125	1209.130981445312	725.5138549804688	-576.3388061523438	1135.583740234375	45.38565063476562	-481.6086730957031	1160.258178710938	339.2833557128906	-546.1860961914062	1066.03125	30.47790908813477	-660.0281982421875	1037.902587890625	33.39075469970703	-584.6113891601562	1139.335815429688	36.54161071777344	-565.603759765625	1083.56591796875	30.6854133605957	-407.6721801757812	
